<svg width="78" height="28" viewBox="0 0 78 28" fill="none" xmlns="http://www.w3.org/2000/svg">
<path fill-rule="evenodd" clip-rule="evenodd" d="M33.5923 27.5102C29.4349 27.9917 25.5284 27.7822 21.9796 26.8876C18.6299 26.0431 11.8672 22.7375 8.728 20.41C6.27476 18.5913 0.820839 13.7171 0.855454 13.3745C0.939994 12.5405 2.23041 13.1611 4.81071 15.2768C12.9401 21.9423 19.8832 25.2501 26.8041 25.755C30.2898 26.009 32.4463 25.7891 35.9262 24.8246C38.7759 24.0348 39.2037 23.8663 40.6251 22.9724C43.8449 20.9476 45.7438 18.5466 46.2004 15.9229C46.3347 15.1521 46.375 14.4267 46.2899 14.3107C46.205 14.1948 45.7717 14.0727 45.3269 14.0393C42.7131 13.8425 38.9371 12.1203 37.4648 10.4536C35.0475 7.71701 36.2537 3.83909 39.6603 3.3943C43.2774 2.92221 46.8121 5.52761 48.5113 9.91819C48.8369 10.7599 49.0887 11.1598 49.3061 11.1816C49.4811 11.1991 51.2913 10.8641 53.3289 10.4369C56.6078 9.74953 57.7638 9.41009 63.3883 7.48289C71.9172 4.5606 72.6572 4.29137 72.5513 4.1494C72.5011 4.08206 71.2818 3.49841 69.8415 2.85253C68.3421 2.17986 67.169 1.52855 67.097 1.32878C67.0278 1.13683 66.9337 0.875139 66.8877 0.747472C66.7041 0.237705 67.9552 0.426581 71.9581 1.51257C76.6875 2.79582 77.4125 3.07815 77.5823 3.70166C77.7022 4.14184 76.9373 6.06689 76.168 7.2616C74.7909 9.39968 73.0507 11.7777 72.6493 12.0694C72.2606 12.3522 72.0998 12.3635 71.7015 12.136C71.4377 11.9854 71.1975 11.7725 71.1676 11.6627C71.046 11.2161 71.4218 10.2112 72.2229 8.84109C72.6889 8.04446 73.0571 7.34525 73.0414 7.2875C73.0257 7.22975 71.1947 7.85075 68.9727 8.6674C64.8447 10.1846 51.4143 14.0557 50.0684 14.1163C49.4697 14.1434 49.4511 14.1786 49.0695 16.0208C48.3328 19.5776 45.9972 22.6126 42.2696 24.8566C40.5371 25.8996 36.2935 27.1973 33.5923 27.5102ZM45.3008 10.0945C44.2913 7.67469 41.6426 5.83593 39.864 6.32021C39.3237 6.46732 38.8763 7.14137 39.005 7.61423C39.3256 8.79152 41.7871 10.3515 44.0391 10.8047C44.8578 10.9693 45.5667 11.0934 45.6148 11.0803C45.663 11.0672 45.5218 10.6237 45.3008 10.0945Z" fill="url(#paint0_linear_575_539)"/>
<defs>
<linearGradient id="paint0_linear_575_539" x1="43.7006" y1="25.0026" x2="37.7256" y2="3.05914" gradientUnits="userSpaceOnUse">
<stop stop-color="#43DF9B"/>
<stop offset="1" stop-color="#3DBAB5"/>
</linearGradient>
</defs>
</svg>
