<svg width="215" height="76" viewBox="0 0 215 76" fill="none" xmlns="http://www.w3.org/2000/svg">
<path fill-rule="evenodd" clip-rule="evenodd" d="M48.1617 12.058C56.772 20.8606 59.0994 23.5161 58.6674 24.044C56.6372 26.5241 51.5983 31.6814 51.2057 31.6814C50.9448 31.6814 47.6055 28.495 43.7853 24.5997L36.8399 17.5184L29.8944 24.5997C26.0742 28.495 22.7304 31.6814 22.4629 31.6814C21.8099 31.6814 14.6353 24.3729 14.6353 23.7078C14.6353 23.1887 36.3377 0.75 36.8399 0.75C36.9832 0.75 42.0781 5.83874 48.1617 12.058ZM115.947 18.765C120.625 20.8627 123.101 25.123 122.364 29.8065C121.957 32.3929 121.009 34.0761 118.946 35.8732L117.389 37.23L119.379 38.2673C121.808 39.5339 122.859 40.6773 123.873 43.1539C125.681 47.5761 124.26 53.152 120.641 55.8301C117.269 58.3248 114.567 58.7465 101.94 58.7465H90.585L90.4527 38.6421C90.3801 27.5851 90.4401 18.2201 90.586 17.8309C90.8035 17.2519 92.8806 17.1648 102.073 17.3494C112.42 17.5576 113.501 17.6674 115.947 18.765ZM150.902 29.7833L160.226 42.3198L160.479 29.9122L160.731 17.5045H165.021H169.31V38.1255V58.7465L165.711 58.8965L162.111 59.047L152.337 45.979L142.564 32.9115L142.311 45.829L142.059 58.7465L137.896 58.896L133.732 59.046V38.1461V17.2468H137.655H141.578L150.902 29.7833ZM206.143 18.7268C210.206 20.5802 211.815 22.486 212.508 26.2684C213.131 29.6725 212.14 33.0435 209.849 35.3154L207.85 37.2971L209.854 38.341C216.92 42.0239 216.651 53.0597 209.407 56.7488C206.004 58.481 201.71 58.996 190.632 59.0001L180.665 59.0042V38.06V17.1153L192.146 17.3468C202.646 17.5587 203.841 17.6767 206.143 18.7268ZM98.9117 29.9214V34.3477L104.68 34.1745C109.589 34.0271 110.66 33.8399 111.871 32.9187C114.251 31.1077 114.079 27.6165 111.546 26.2777C110.483 25.7163 108.487 25.4952 104.488 25.4952H98.9117V29.9214ZM189.244 29.8771V34.2591H194.306C201.361 34.2591 203.909 32.9965 203.862 29.5245C203.822 26.4772 201.542 25.4952 194.51 25.4952H189.244V29.8771ZM12.5017 42.3678L8.34891 46.6322L4.17446 42.3899L0 38.1477L4.15275 33.8833L8.30551 29.6188L12.48 33.8611L16.6544 38.1033L12.5017 42.3678ZM41.4927 34.4735C45.4305 38.5709 45.5935 37.6425 39.9278 43.3808L36.7076 46.6425L32.7366 42.4698C30.5524 40.1747 28.7655 38.1791 28.7655 38.0353C28.7655 37.8909 30.5106 35.9454 32.6432 33.7116C37.0685 29.0765 36.2378 29.0048 41.4927 34.4735ZM69.527 42.3678L65.3742 46.6322L61.1998 42.3899L57.0253 38.1477L61.1781 33.8833L65.3308 29.6188L69.5053 33.8611L73.6797 38.1033L69.527 42.3678ZM98.9117 46.3739V50.7558H105.497C110.454 50.7558 112.456 50.5584 113.593 49.9578C116.358 48.4973 116.653 45.0031 114.179 43.0147C113.048 42.1064 112.123 41.9919 105.909 41.9919H98.9117V46.3739ZM189.244 46.3357V50.7558L195.93 50.7538C201.706 50.7522 202.841 50.613 204.257 49.7305C206.417 48.3849 206.7 45.2382 204.835 43.2807C203.959 42.361 203.065 42.2316 196.549 42.0827L189.244 41.9156V46.3357ZM29.8944 51.6513L36.8399 58.7326L43.7853 51.6513C47.6055 47.756 50.9201 44.5696 51.1512 44.5696C51.6064 44.5696 59.0444 52.321 59.0444 52.7958C59.0444 52.9546 54.0484 58.184 47.9421 64.4172L36.8399 75.75L25.7376 64.4172C19.6313 58.184 14.6353 52.8643 14.6353 52.5947C14.6353 51.9508 21.8064 44.5989 22.4508 44.5824C22.7248 44.5752 26.0742 47.756 29.8944 51.6513Z" fill="white"/>
</svg>
