<svg width="271" height="86" viewBox="0 0 271 86" fill="none" xmlns="http://www.w3.org/2000/svg">
<path fill-rule="evenodd" clip-rule="evenodd" d="M18.1022 11.2275L0.304408 21.7043L0.152204 43.2668L0 64.8286L17.9527 75.289L35.9047 85.75L53.7988 75.2046L71.6922 64.6599V43.1873V21.7139L57.5493 13.4116C49.7707 8.84521 41.7174 4.12866 39.6532 2.92998L35.9006 0.75L18.1022 11.2275ZM46.4552 25.111L56.5391 30.9954V43.2161V55.4367L46.5132 61.3327C40.9988 64.5756 36.2259 67.2212 35.906 67.213C35.5861 67.2041 30.9304 64.6195 25.5595 61.4692L15.7942 55.7412L15.611 43.369L15.4278 30.9975L25.3763 25.1234C30.8476 21.8922 35.5605 19.2438 35.8481 19.2377C36.1357 19.2315 40.9092 21.8743 46.4552 25.111ZM103.086 27.7992C96.9998 29.7323 92.9361 35.7716 92.9361 42.8848C92.9361 52.0594 98.9717 58.3141 107.825 58.3141C112.772 58.3141 116.806 56.1739 119.248 52.2521C120.317 50.5357 121.192 48.9345 121.192 48.6945C121.192 48.4544 120.158 47.9353 118.895 47.5404C116.696 46.8532 116.53 46.928 115.022 49.2869C111.908 54.1605 105.668 54.6995 101.152 50.4856C98.9906 48.4688 98.6996 47.7845 98.4383 44.1048C97.9197 36.8023 101.437 32.264 107.619 32.2586C111.146 32.2551 114.183 33.9407 115.306 36.5246C116.246 38.6874 116.231 38.6826 118.998 37.7006C121.526 36.8037 121.326 35.5206 118.054 31.6277C116.37 29.6246 114.767 28.5665 112.274 27.8129C108.161 26.5689 106.966 26.5669 103.086 27.7992ZM125.233 42.1991V57.6283H127.59H129.947V51.4889C129.947 44.6856 130.768 42.0167 133.04 41.4359C137.374 40.3284 138.679 42.603 138.692 51.2852L138.702 57.6283H141.059H143.417V50.4061C143.417 42.5187 142.569 39.3416 139.97 37.4887C138.002 36.0843 134.523 36.0535 131.934 37.4167L129.947 38.4625V32.6165V26.7699H127.59H125.233V42.1991ZM171.164 27.5928C170.058 28.7187 170.147 31.2258 171.329 32.2243C172.688 33.3729 175.08 32.8641 176.162 31.1957C177.98 28.393 173.528 25.1851 171.164 27.5928ZM206.049 42.1991V57.6283H208.406H210.764V42.1991V26.7699H208.406H206.049V42.1991ZM216.959 27.5928C215.854 28.7187 215.943 31.2258 217.124 32.2243C218.484 33.3729 220.876 32.8641 221.958 31.1957C223.776 28.393 219.324 25.1851 216.959 27.5928ZM251.845 42.1991V57.6283H254.202C256.535 57.6283 256.559 57.5968 256.559 54.6488C256.559 52.5861 256.955 51.3044 257.847 50.4829C259.088 49.3391 259.234 49.4454 261.913 53.4624C264.626 57.5303 264.763 57.6283 267.742 57.6283H270.794L269.267 55.3997C268.426 54.1742 266.553 51.517 265.104 49.4954L262.469 45.8205L266.735 41.4379L271 37.056H267.672C264.525 37.056 264.131 37.2693 260.451 40.9778L256.559 44.8989V35.8347V26.7699H254.202H251.845V42.1991ZM152.012 37.4435C149.576 38.7903 147.624 42.4789 148.909 43.3079C150.535 44.3571 152.29 43.9457 153.639 42.1991C155.789 39.4163 160.253 40.172 160.253 43.3189C160.253 44.6061 159.495 44.9352 154.866 45.6573C150.712 46.3053 149.522 47.0672 148.402 49.7971C147.568 51.8297 147.568 52.4551 148.402 54.4876C148.931 55.7768 149.976 57.1655 150.724 57.5735C152.976 58.8003 157.196 58.4601 159.152 56.8925C160.623 55.7144 160.927 55.6561 160.927 56.5497C160.927 57.3252 161.59 57.6283 163.284 57.6283H165.641V50.4061C165.641 41.6087 164.715 38.8232 161.309 37.3742C158.319 36.1021 154.387 36.1316 152.012 37.4435ZM189.044 37.4483C187.971 38.0407 187.192 38.1738 187.192 37.7637C187.192 37.3742 185.98 37.056 184.498 37.056H181.804V47.3422V57.6283H184.498H187.192V50.5343C187.192 42.7155 187.889 41.1705 191.416 41.1705C194.411 41.1705 195.274 43.3525 195.274 50.9238V57.6283H197.631H199.988V49.7745C199.988 45.1457 199.657 41.1821 199.183 40.1227C197.646 36.6864 192.758 35.3972 189.044 37.4483ZM234.84 37.4483C233.767 38.0407 232.988 38.1738 232.988 37.7637C232.988 37.3742 231.776 37.056 230.294 37.056H227.6V47.3422V57.6283H230.294H232.988V50.5343C232.988 42.7491 233.689 41.1705 237.146 41.1705C240.326 41.1705 241.07 42.9671 241.07 50.6536V57.6283H243.427H245.784V49.7745C245.784 45.1457 245.453 41.1821 244.979 40.1227C243.442 36.6864 238.554 35.3972 234.84 37.4483ZM171.029 47.301V57.6283H173.741H176.452L176.266 47.5136L176.08 37.3989L173.554 37.1863L171.029 36.973V47.301ZM216.825 47.3422V57.6283H219.182H221.539V47.3422V37.056H219.182H216.825V47.3422ZM160.253 50.3217C160.253 52.6718 158.115 54.3381 155.434 54.0762C153.437 53.8814 153.182 53.627 153.182 51.8304C153.182 49.6792 154.47 48.9269 158.401 48.7822C159.915 48.726 160.253 49.0078 160.253 50.3217Z" fill="white"/>
</svg>
