<svg width="62" height="64" viewBox="0 0 62 64" fill="none" xmlns="http://www.w3.org/2000/svg">
<path fill-rule="evenodd" clip-rule="evenodd" d="M16.8444 0.22403C16.3187 0.335888 15.2599 0.733817 14.4915 1.10838C13.3046 1.68695 12.8949 1.98952 11.7677 3.12037C10.3501 4.54269 9.64918 5.66755 9.07345 7.44502C8.1911 10.1689 8.2533 12.8382 9.26947 15.8627C11.3683 22.1103 17.5134 29.0553 25.815 34.5619C28.1175 36.0892 30.4178 37.381 30.835 37.381C31.2278 37.381 33.7236 35.9632 35.9888 34.4534C44.1392 29.0209 50.2842 22.0431 52.3605 15.8627C53.1637 13.4722 53.3544 11.5429 53.0072 9.32105C52.6147 6.80906 51.6155 4.85563 49.7989 3.04911C48.7492 2.00544 48.2992 1.6776 47.1384 1.11101C45.5506 0.336034 44.183 0.00381777 42.5664 2.1017e-05C38.4695 -0.00917881 34.2436 3.00252 31.5503 7.85142C31.1863 8.50665 30.8554 9.04272 30.815 9.04272C30.7745 9.04272 30.4437 8.50665 30.0797 7.85142C27.9012 3.92952 24.6565 1.13452 21.2894 0.279375C19.9877 -0.0512349 18.2411 -0.0729934 16.8444 0.22403ZM20.6528 2.55845C23.9469 3.32963 27.2948 6.81753 29.21 11.4734C29.9278 13.2186 30.1028 13.4322 30.815 13.4322C31.521 13.4322 31.7157 13.2024 32.365 11.6007C34.1725 7.14274 37.376 3.63059 40.5208 2.65936C41.7215 2.28844 43.7152 2.32918 44.9605 2.74975C48.9425 4.09497 51.3415 8.33375 50.6765 12.8494C49.8024 18.7855 43.5832 26.4694 34.9326 32.3009C32.1925 34.1482 31.0241 34.7999 30.6322 34.6999C30.4495 34.6533 29.4331 34.0655 28.3731 33.3936C18.7209 27.2763 11.8918 19.2224 10.9534 12.8494C10.5295 9.97044 11.379 6.97685 13.1655 5.05496C15.2067 2.85912 17.9828 1.93359 20.6528 2.55845ZM2.21215 15.1789C1.49083 15.4664 1.45848 15.6076 0.815539 21.2776L0.199219 26.7134L0.64804 31.2806C0.894951 33.7924 1.17451 36.8334 1.26921 38.0381C1.41642 39.9097 1.49642 40.3307 1.81804 40.9305C2.25259 41.7408 3.33024 42.8533 7.75566 47.0599C11.3174 50.4454 12.7143 52.0604 13.642 53.864L14.2709 55.0871L14.3445 58.8058L14.418 62.5244L14.7652 62.8033C15.2487 63.1916 15.8984 63.1586 16.3364 62.7236L16.6974 62.3652V58.7963C16.6974 54.6999 16.6075 54.2234 15.4568 52.2241C14.4215 50.4253 12.77 48.5354 9.65433 45.5841C8.07095 44.0843 6.10816 42.1999 5.29243 41.3968L3.8095 39.9365L3.62965 37.6C3.53082 36.315 3.25774 33.3491 3.02303 31.0091L2.59612 26.7546L3.10377 22.2583C3.38303 19.7855 3.64023 17.7336 3.67538 17.6987C3.82023 17.5549 4.6617 18.3125 4.98905 18.8813C5.85331 20.3833 6.10919 22.0971 6.10919 26.3853V29.5332L6.48949 31.2168C6.94713 33.2435 7.5986 35.4541 8.17727 36.9439L8.60345 38.0412L11.8124 41.2157C14.6711 44.0437 15.0736 44.3904 15.4984 44.3904C16.1375 44.3904 16.6974 43.8346 16.6974 43.2001C16.6974 42.7792 16.3553 42.3845 13.6236 39.6522L10.5498 36.5778L10.1601 35.4894C9.828 34.562 8.75815 30.7621 8.75668 30.5053C8.75639 30.4583 9.16992 30.4758 9.67536 30.5442C11.2204 30.753 11.6895 31.1498 13.4589 33.7444C14.3099 34.9925 15.1896 36.2472 15.4137 36.5325C15.6378 36.818 17.2591 38.0245 19.0166 39.2136C23.4612 42.2209 25.6751 44.1802 27.4131 46.6439C28.4248 48.078 28.5484 48.6867 28.3415 51.2195C28.2447 52.403 27.9691 54.324 27.7288 55.4886C27.3509 57.3201 27.2915 57.9272 27.2888 59.9855L27.2856 62.3652L27.6466 62.7236C28.1241 63.1979 28.8 63.1979 29.2775 62.7236L29.6385 62.3652L29.6415 60.2046C29.644 58.3983 29.7166 57.685 30.0845 55.8536C30.3267 54.6489 30.5667 53.1868 30.6179 52.6045C30.6691 52.0221 30.7578 51.5458 30.815 51.5458C30.8722 51.5458 30.9609 52.0221 31.012 52.6045C31.0632 53.1868 31.3032 54.6489 31.5454 55.8536C31.9134 57.685 31.986 58.3983 31.9885 60.2046L31.9914 62.3652L32.3525 62.7236C32.83 63.1979 33.5058 63.1979 33.9833 62.7236L34.3444 62.3652L34.3411 59.9855C34.3385 57.9272 34.2791 57.3201 33.9011 55.4886C33.6608 54.324 33.3853 52.403 33.2885 51.2195C33.0817 48.6886 33.2053 48.0777 34.2129 46.6494C35.9788 44.1462 37.9995 42.3524 42.4708 39.3188L45.8177 37.0479L46.5884 36.0194C47.0123 35.4537 47.8884 34.1996 48.5355 33.2326C49.9012 31.1914 50.469 30.745 51.9546 30.5442C52.4602 30.4758 52.8736 30.4583 52.8733 30.5053C52.8718 30.7621 51.8019 34.562 51.4699 35.4894L51.0802 36.5778L48.0064 39.6522C45.2746 42.3845 44.9326 42.7792 44.9326 43.2001C44.9326 43.8346 45.4924 44.3904 46.1315 44.3904C46.5564 44.3904 46.9589 44.0437 49.8175 41.2157L53.0265 38.0412L53.4527 36.9439C54.0315 35.4534 54.6828 33.2432 55.1412 31.214L55.5221 29.5277L55.508 26.1893C55.4897 21.8502 55.7868 20.0992 56.784 18.6704C57.1537 18.1405 57.8347 17.5797 57.9588 17.703C57.9916 17.7355 58.2469 19.7855 58.5262 22.2583L59.0338 26.7546L58.6087 31.0091C58.3749 33.3491 58.1074 36.2492 58.0143 37.454L57.8449 39.6444L57.4572 40.2128C57.2438 40.5254 55.7118 42.0437 54.0524 43.5868C49.0381 48.2498 46.9949 50.5322 45.8968 52.6975C44.9965 54.4726 44.9326 54.8782 44.9326 58.8074V62.3652L45.2936 62.7236C45.7315 63.1586 46.3812 63.1916 46.8648 62.8033L47.212 62.5244L47.2855 58.8122L47.359 55.1L47.9818 53.8706C48.8843 52.0884 50.2743 50.482 53.8743 47.0599C58.2977 42.8552 59.3771 41.7411 59.8128 40.9305C60.1371 40.3275 60.2137 39.9198 60.3569 38.0381C60.4487 36.8334 60.7262 33.8106 60.9735 31.3208L61.4234 26.7939L60.8162 21.3908C60.18 15.7289 60.1156 15.448 59.3904 15.1742C58.9078 14.9921 57.6115 15.2184 56.7406 15.6371C54.1759 16.87 52.8064 20.7859 53.0877 26.0821L53.1896 27.9987L52.3331 28.1011C50.3652 28.3364 49.1231 28.8388 48.1699 29.7854C47.8531 30.1 46.9337 31.33 46.127 32.5185C45.3204 33.707 44.5064 34.8542 44.3184 35.0677C44.1305 35.2812 42.5208 36.4426 40.7414 37.6483C37.3917 39.9181 35.4747 41.5023 33.8126 43.3741C32.5516 44.7943 31.457 46.4584 31.152 47.4193C31.0181 47.8416 30.8647 48.1871 30.8114 48.1871C30.7581 48.1871 30.6316 47.9078 30.5303 47.5665C30.1188 46.1805 28.599 44.0771 26.564 42.0773C24.9393 40.4806 23.7721 39.5739 20.5209 37.383C18.9437 36.3201 17.4994 35.277 17.3115 35.0649C17.1236 34.8529 16.3096 33.707 15.503 32.5185C14.6962 31.33 13.7768 30.1 13.46 29.7854C12.5126 28.8445 11.2621 28.3358 9.33095 28.1053L8.50874 28.0072L8.5136 25.0641C8.51727 22.7614 8.46139 21.867 8.25639 20.9537C7.44522 17.3408 5.79243 15.4781 3.0945 15.1362C2.77097 15.0952 2.37392 15.1143 2.21215 15.1789Z" fill="url(#paint0_linear_575_497)"/>
<defs>
<linearGradient id="paint0_linear_575_497" x1="30.8113" y1="0" x2="30.8113" y2="63.0793" gradientUnits="userSpaceOnUse">
<stop stop-color="#43DF9B"/>
<stop offset="1" stop-color="#3DBAB5"/>
</linearGradient>
</defs>
</svg>
