<svg width="74" height="49" viewBox="0 0 74 49" fill="none" xmlns="http://www.w3.org/2000/svg">
<path d="M30.1479 46.5C25.8992 44.0534 21.0796 42.7653 16.1736 42.7653C11.2675 42.7653 6.44796 44.0534 2.19922 46.5V6.23468C6.44796 3.78805 11.2675 2.5 16.1736 2.5C21.0796 2.5 25.8992 3.78805 30.1479 6.23468M30.1479 46.5V6.23468M30.1479 46.5C33.2248 44.7282 36.601 43.564 40.0927 43.0566M30.1479 6.23468C34.3967 3.78805 39.2162 2.5 44.1223 2.5C49.0283 2.5 53.8479 3.78805 58.0966 6.23468V10.3974M59.3222 23.6537C58.16 22.4945 56.1137 21.689 54.2321 21.6382M54.2321 21.6382C51.9924 21.5773 49.9903 22.5876 49.9903 25.346C49.9903 30.423 59.3222 27.8845 59.3222 32.9614C59.3222 35.857 56.8382 37.1008 54.2321 37.0077M54.2321 21.6382V18.5768M49.1419 34.6537C50.2346 36.1091 52.269 36.9383 54.2321 37.0077M54.2321 37.0077V40.5768M54.232 46.5C63.603 46.5 71.1992 38.9235 71.1992 29.5769C71.1992 20.2303 63.603 12.6538 54.232 12.6538C44.861 12.6538 37.2648 20.2303 37.2648 29.5769C37.2648 38.9235 44.861 46.5 54.232 46.5Z" stroke="url(#paint0_linear_575_491)" stroke-width="3.69749" stroke-linecap="round" stroke-linejoin="round"/>
<defs>
<linearGradient id="paint0_linear_575_491" x1="36.6992" y1="2.5" x2="36.6992" y2="46.5" gradientUnits="userSpaceOnUse">
<stop stop-color="#43DF9B"/>
<stop offset="1" stop-color="#3DBAB5"/>
</linearGradient>
</defs>
</svg>
