<svg width="18" height="16" viewBox="0 0 18 16" fill="none" xmlns="http://www.w3.org/2000/svg">
<path d="M3.96942 1.77857C3.96919 2.25004 3.78167 2.7021 3.44812 3.03532C3.11458 3.36853 2.66232 3.55559 2.19085 3.55536C1.71938 3.55512 1.26732 3.36761 0.934104 3.03406C0.600891 2.70051 0.413827 2.24826 0.414063 1.77679C0.414298 1.30532 0.601815 0.853255 0.935361 0.520042C1.26891 0.186829 1.72116 -0.000235512 2.19263 2.22531e-07C2.6641 0.000235957 3.11617 0.187753 3.44938 0.521299C3.78259 0.854845 3.96966 1.3071 3.96942 1.77857ZM4.02275 4.87173H0.467393V16H4.02275V4.87173ZM9.64022 4.87173H6.10264V16H9.60466V10.1603C9.60466 6.90717 13.8444 6.60497 13.8444 10.1603V16H17.3553V8.9515C17.3553 3.46736 11.0801 3.6718 9.60466 6.36498L9.64022 4.87173Z" fill="white"/>
</svg>
