<svg width="53" height="64" viewBox="0 0 53 64" fill="none" xmlns="http://www.w3.org/2000/svg">
<path fill-rule="evenodd" clip-rule="evenodd" d="M26.4265 0.20359C26.2466 0.308722 25.9854 0.669816 25.8461 1.00604C25.5244 1.7824 25.8501 2.67622 26.5749 3.00637C26.9085 3.15841 28.9319 3.23484 32.6265 3.23484H38.1769V25.1579C38.1769 39.8368 38.2462 47.2636 38.387 47.6336C38.7723 48.6473 39.0268 48.7114 42.6921 48.7182C44.5641 48.7219 46.0653 48.8021 46.0281 48.8968C45.9314 49.1436 34.7542 59.2385 34.581 59.2353C34.5015 59.2341 32.3441 57.4102 29.7865 55.1824C27.229 52.9549 24.6193 50.7042 23.9871 50.1812C23.3548 49.6582 22.7891 49.1165 22.7299 48.9774C22.6462 48.7817 23.2974 48.7247 25.613 48.7247H28.604L29.0747 48.2239C29.7192 47.5377 29.6775 46.5458 28.9786 45.9448L28.4497 45.4899H22.9931H17.5364L17.0281 45.9981C16.6322 46.394 16.5336 46.6732 16.5823 47.2611L16.645 48.0161L20.7057 51.5546C22.939 53.5009 26.0701 56.2305 27.6639 57.6205C33.9552 63.1078 33.9188 63.0793 34.6131 63.0793C35.1847 63.0793 36.2683 62.1721 43.5437 55.602C48.0977 51.4895 51.9068 47.9045 52.0079 47.635C52.2539 46.9801 51.8439 46.0143 51.1941 45.7183C50.8682 45.5697 49.0706 45.4899 46.0523 45.4899H41.4117V23.1845V0.879269L40.9439 0.439536L40.4759 0L33.615 0.00606507C29.6804 0.00970426 26.6144 0.0938079 26.4265 0.20359ZM12.2324 6.88535C6.74251 7.52342 2.28814 9.28398 0.752196 11.423C-1.02474 13.8977 0.481479 16.7882 4.39827 18.4204C7.55021 19.7339 11.0406 20.3813 15.9374 20.5606C22.1106 20.7869 28.2912 19.7323 31.7149 17.869C33.5838 16.8517 34.9366 14.9921 34.9408 13.4339C34.9429 12.7002 33.9227 10.9449 33.1287 10.3161C31.2018 8.78986 27.474 7.55071 23.0742 6.9741C20.6238 6.65284 14.6533 6.60392 12.2324 6.88535ZM23.1147 10.2124C27.0363 10.8005 30.2329 11.9016 31.2923 13.0293L31.7636 13.5309L31.4359 14.0309C30.739 15.0945 27.5466 16.2827 23.4179 17.015C21.385 17.3757 13.5597 17.3713 11.3884 17.0084C7.61673 16.378 4.1599 15.0816 3.47896 14.0424C3.07966 13.4331 3.26061 13.1541 4.61541 12.2902C5.97161 11.4256 10.1096 10.2924 12.8036 10.048C15.143 9.83572 21.253 9.93317 23.1147 10.2124ZM16.1395 10.4845C16.1395 10.7946 15.9279 10.882 14.9214 10.9873C13.1534 11.1721 12.5003 11.5623 12.5003 12.4339C12.5003 13.405 13.171 13.7032 16.2604 14.1051C17.6395 14.2846 18.7678 14.519 18.7678 14.6259C18.7678 14.7468 17.6286 14.7765 15.7522 14.7044L12.7365 14.5885L12.3918 14.9694C11.8255 15.5951 12.1451 15.8984 13.5227 16.0424C14.2162 16.1149 15.0886 16.1742 15.4616 16.1742C16.0047 16.1742 16.1395 16.2546 16.1395 16.5785C16.1395 16.934 16.2744 16.9829 17.2515 16.9829C18.1922 16.9829 18.3635 16.9263 18.3635 16.6147C18.3635 16.3125 18.6342 16.2045 19.8778 16.0112C21.5821 15.7462 22.1695 15.4631 22.3306 14.8283C22.6193 13.6916 21.888 13.3295 18.2624 12.8146C15.0336 12.3559 15.0924 12.3259 19.3505 12.2608C21.342 12.2303 21.8264 12.0059 21.5359 11.2483C21.4348 10.9849 21.1155 10.9176 19.9684 10.9176C18.6979 10.9176 18.5153 10.8699 18.4221 10.5132C18.3328 10.1719 18.1463 10.1089 17.2278 10.1089C16.3021 10.1089 16.1395 10.1651 16.1395 10.4845ZM0.698011 18.8935C0.519488 19.166 0.26495 19.795 0.13212 20.2913C-0.237259 21.6722 0.14647 22.6918 1.55464 24.0712C2.86616 25.3561 4.70113 26.2226 7.74835 26.9955C15.2326 28.894 26.1431 28.215 31.4078 25.5231C33.362 24.5237 34.9297 22.5705 34.9356 21.1275C34.938 20.5483 34.0727 18.3981 33.8372 18.3981C33.7514 18.3981 31.6286 19.7685 31.1187 20.1526C31.0732 20.187 31.1987 20.3954 31.3981 20.6156L31.7606 21.0161L31.4519 21.4872C30.7616 22.5407 27.7368 23.7318 24.1255 24.3723C21.2562 24.8813 13.6412 24.883 10.7818 24.3755C8.12218 23.9034 5.98112 23.2146 4.63239 22.3974C3.21553 21.539 2.99273 21.1864 3.50767 20.6174C3.85542 20.2331 3.86371 20.1646 3.58167 20.0069C3.40699 19.909 2.7857 19.5071 2.201 19.1136C1.6161 18.72 1.11187 18.3981 1.08033 18.3981C1.04859 18.3981 0.876736 18.6211 0.698011 18.8935ZM0.588025 26.56C0.356532 26.9349 0.109676 27.6599 0.0395207 28.1716C-0.216638 30.0397 1.38521 32.0617 4.0576 33.2436C12.4393 36.9503 28.5852 36.0545 33.3262 31.6197C34.6695 30.3632 35.0872 29.2637 34.7615 27.8422C34.6287 27.2626 34.3464 26.5792 34.1343 26.3235L33.7488 25.8583L32.7557 26.5257C32.2094 26.8926 31.591 27.2949 31.3811 27.4199L30.9996 27.6469L31.3534 28.0424C31.5479 28.2597 31.7072 28.5363 31.7072 28.6566C31.7072 29.4093 28.5662 30.9121 25.6728 31.5437C20.0163 32.7782 11.6783 32.5087 7.05933 30.942C5.1906 30.3082 3.8633 29.5903 3.48038 29.0058L3.14679 28.4967L3.52729 28.0717L3.90778 27.6469L3.52628 27.4199C3.31642 27.2949 2.70442 26.8973 2.16643 26.5358C1.62843 26.1743 1.14785 25.8787 1.09873 25.8787C1.04939 25.8787 0.819721 26.1854 0.588025 26.56ZM0.597329 34.0256C-0.364025 35.581 -0.138194 37.2651 1.23075 38.7503C2.77781 40.4286 5.79491 41.6857 10.2044 42.4892C13.6643 43.1195 21.22 43.124 24.6534 42.4977C30.2129 41.4833 33.6435 39.7161 34.6281 37.3587C35.0399 36.3727 35.0185 35.6608 34.5472 34.6734C33.861 33.2355 33.8871 33.2454 32.7715 33.9953C32.2165 34.3683 31.591 34.7755 31.3811 34.9004L30.9996 35.1275L31.3696 35.5407C31.8631 36.0921 31.5786 36.6175 30.4185 37.2975C25.9059 39.9419 15.3765 40.6134 8.05243 38.7234C6.26315 38.2616 3.87746 37.092 3.47634 36.48L3.14679 35.9772L3.52729 35.5484C3.7794 35.2646 3.82853 35.0919 3.67305 35.0373C3.54406 34.992 2.92581 34.596 2.29946 34.157C1.67292 33.7183 1.12642 33.3592 1.08478 33.3592C1.04313 33.3592 0.823768 33.6591 0.597329 34.0256Z" fill="url(#paint0_linear_575_469)"/>
<defs>
<linearGradient id="paint0_linear_575_469" x1="26.04" y1="0" x2="26.04" y2="63.0793" gradientUnits="userSpaceOnUse">
<stop stop-color="#43DF9B"/>
<stop offset="1" stop-color="#3DBAB5"/>
</linearGradient>
</defs>
</svg>
