<svg width="231" height="70" viewBox="0 0 231 70" fill="none" xmlns="http://www.w3.org/2000/svg">
<path fill-rule="evenodd" clip-rule="evenodd" d="M93.8788 1.50978C85.9495 4.00641 80.0976 10.5951 78.6439 18.6623C76.1715 32.3803 89.1008 45.0413 103.388 42.8923C110.734 41.7869 117.216 37.0771 120.387 30.5396C121.721 27.7891 121.891 26.7995 121.891 21.7793C121.891 16.6082 121.749 15.8406 120.25 12.8858C118.159 8.76467 113.888 4.63434 109.649 2.63358C106.858 1.31628 105.533 1.04516 101.282 0.919036C98.1023 0.825251 95.3582 1.04408 93.8788 1.50978ZM176.79 1.76688C175.856 2.49668 175.5 3.33482 175.5 4.80089C175.5 7.27704 177.216 8.84337 179.929 8.84337C182.027 8.84337 184.091 6.83884 184.091 4.80089C184.091 4.13954 183.571 2.95968 182.935 2.17867C181.529 0.450651 178.713 0.262002 176.79 1.76688ZM106.386 10.0038C116.494 14.6074 116.49 28.7372 106.38 33.7213C98.9079 37.4043 89.6018 33.538 87.2677 25.7813C84.8656 17.7972 89.5092 10.6943 98.461 8.66011C100.273 8.24832 103.869 8.85792 106.386 10.0038ZM8.16473 11.0921C5.25107 11.8795 1.39352 15.5517 0.619217 18.2758C0.270559 19.5026 0.00501884 25.0192 0.00334528 31.077C-1.83866e-06 41.7222 1.06402e-06 41.7222 3.87206 41.7222C7.74356 41.7222 7.74356 41.7222 7.91649 31.2538C8.08496 21.0252 8.12011 20.7536 9.4411 19.3958C10.8932 17.9044 13.1932 17.5789 15.1457 18.5884C17.3609 19.7343 17.8513 22.2137 17.8513 32.2725C17.8513 41.7222 17.8513 41.7222 21.7563 41.7222C25.6612 41.7222 25.6612 41.7222 25.6612 32.0553C25.6612 20.0944 26.3318 18.0667 30.3003 18.0236C34.8708 17.9734 35.7026 20.1672 35.7026 32.2725C35.7026 41.7222 35.7026 41.7222 39.6075 41.7222C43.5125 41.7222 43.5125 41.7222 43.5125 31.0225C43.5125 19.7376 43.2185 17.9287 40.8928 14.9022C37.1703 10.0577 27.8748 9.14359 23.4008 13.1818C21.7306 14.6893 21.6798 14.6985 20.6417 13.6954C17.9177 11.0635 12.4741 9.92729 8.16473 11.0921ZM136.671 10.9638C132.639 12.1485 130.072 14.2792 128.501 17.7444C127.709 19.4896 127.484 21.9421 127.301 30.8075C127.076 41.7222 127.076 41.7222 131.317 41.7222C135.558 41.7222 135.558 41.7222 135.558 31.7238C135.558 19.3069 136.041 18.0063 140.65 18.0063C141.662 18.0063 142.835 18.52 143.672 19.3296C145.033 20.6436 145.042 20.7207 145.042 31.1875C145.042 41.7222 145.042 41.7222 149.226 41.7222C153.41 41.7222 153.41 41.7222 153.41 31.5793C153.41 19.8314 152.848 17.1218 149.781 14.0706C146.835 11.14 140.876 9.72786 136.671 10.9638ZM168.898 10.967C165.97 11.8763 163.43 13.8059 161.951 16.2438C158.681 21.6359 160.534 28.7065 166.035 31.8208C169.719 33.9073 173.19 34.097 176.984 32.4185C188.236 27.4415 185.385 11.7728 173.036 10.7164C171.599 10.5935 169.737 10.7061 168.898 10.967ZM190.228 22.605C190.228 34.8144 190.522 36.246 193.676 39.3953C194.621 40.3391 196.107 41.3961 196.978 41.7443C198.56 42.3776 198.56 42.3776 198.717 48.3831C198.875 54.3886 198.875 54.3886 202.919 54.5471C206.963 54.7055 206.963 54.7055 206.963 48.5195C206.963 42.5732 207.012 42.3194 208.219 41.9653C210.633 41.2565 213.231 38.8606 214.549 36.1258C215.811 33.5073 215.878 32.8153 215.883 22.453C215.889 11.5384 215.889 11.5384 212.026 11.5384C208.164 11.5384 208.164 11.5384 207.982 21.914C207.781 33.371 207.537 34.2711 204.352 35.2865C202.969 35.7274 202.21 35.6762 200.97 35.0559C198.341 33.7429 198.038 32.3372 198.038 21.4845C198.038 11.5384 198.038 11.5384 194.133 11.5384C190.228 11.5384 190.228 11.5384 190.228 22.605ZM57.0031 15.7706C47.1575 19.1452 44.303 31.0818 51.6455 38.1761C57.4471 43.7817 66.4899 43.4912 72.0735 37.5196C81.5335 27.4021 70.3129 11.209 57.0031 15.7706ZM174.812 19.1237C177.769 21.3707 175.862 26.0913 171.997 26.0913C170.223 26.0913 167.914 23.8048 167.914 22.0488C167.914 20.2927 170.223 18.0063 171.997 18.0063C172.737 18.0063 174.003 18.5092 174.812 19.1237ZM65.4534 23.9595C69.5698 27.0884 67.6318 33.6987 62.3562 34.5255C56.3733 35.4639 52.8727 28.016 57.5208 24.2371C59.6941 22.4703 63.3263 22.3431 65.4534 23.9595ZM222.597 34.1627C220.173 36.5047 220.763 40.5251 223.75 42.017C226.079 43.1812 227.505 42.978 229.32 41.2247C232.697 37.9627 230.682 33.0982 225.955 33.0982C224.453 33.0982 223.331 33.4534 222.597 34.1627ZM167.353 36.4891C163.709 37.4862 159.78 40.3165 157.602 43.5149C152.648 50.7876 153.874 59.7085 160.634 65.5814C164.008 68.5125 167.435 69.75 172.176 69.75C179.561 69.75 186.057 65.5377 188.561 59.1258C190.14 55.0812 189.92 49.0919 188.064 45.6056C184.085 38.1287 175.374 34.2948 167.353 36.4891ZM176.869 44.7017C183.003 47.7665 183.41 56.7764 177.586 60.5871C174.819 62.3975 169.358 62.5107 166.978 60.807C161.727 57.0475 161.034 50.5612 165.43 46.3144C168.513 43.3354 172.898 42.7172 176.869 44.7017ZM13.1642 46.9698C12.9807 47.1466 12.8306 47.7541 12.8306 48.3195C12.8306 49.5861 14.686 49.4083 14.9438 48.1168C15.1189 47.2383 13.7795 46.3748 13.1642 46.9698ZM31.7976 48.8903C31.7976 50.621 31.7424 50.6625 29.7508 50.4377C27.2327 50.1537 26.2191 51.25 26.2191 54.2576C26.2191 57.794 26.8589 58.3766 30.6847 58.3243C34.029 58.2785 34.029 58.2785 34.029 52.6951C34.029 47.4716 33.9571 47.1121 32.9133 47.1121C32.023 47.1121 31.7976 47.4716 31.7976 48.8903ZM75.868 52.7716C75.868 58.0716 75.9388 58.4311 76.9837 58.4311C77.9755 58.4311 78.0994 58.0716 78.0994 55.1971C78.0994 52.3835 78.2366 51.9631 79.1554 51.9631C80.4597 51.9631 80.8887 52.9743 80.8887 56.0498C80.8887 58.0716 81.0571 58.4311 82.0044 58.4311C82.9694 58.4311 83.1201 58.0716 83.1201 55.7711C83.1201 54.3083 82.8651 52.4633 82.5533 51.671C82.0601 50.4183 81.7327 50.2588 80.0429 50.4496C78.1702 50.6609 78.0994 50.6038 78.0994 48.8903C78.0994 47.4716 77.874 47.1121 76.9837 47.1121C75.9388 47.1121 75.868 47.4716 75.868 52.7716ZM0 53.0411C0 58.0716 0.0741944 58.4311 1.11571 58.4311C2.1098 58.4311 2.2342 58.064 2.25596 55.0623C2.2805 51.6936 2.2805 51.6936 3.36664 53.6798C3.96355 54.7724 4.66811 55.7948 4.93198 55.9528C5.19584 56.1101 6.07055 55.0952 6.87609 53.6965C8.34046 51.1546 8.34046 51.1546 8.3544 54.7928C8.36668 58.0672 8.47936 58.4311 9.4835 58.4311C10.525 58.4311 10.5992 58.0716 10.5992 53.0411C10.5992 47.6625 10.5964 47.6511 9.21517 47.6511C8.12512 47.6511 7.54552 48.1944 6.4856 50.2098C5.14006 52.7678 5.14005 52.7678 3.85365 50.2098C2.87294 48.2591 2.26209 47.6511 1.28362 47.6511C0.0295676 47.6511 0 47.7756 0 53.0411ZM70.2895 49.2681C70.2895 49.861 70.0384 50.3461 69.7316 50.3461C69.4248 50.3461 69.1737 50.7099 69.1737 51.1546C69.1737 51.5993 69.4125 51.9631 69.7037 51.9631C69.9955 51.9631 70.309 53.358 70.401 55.0623C70.5667 58.1265 70.589 58.1637 72.3814 58.3303C73.7281 58.4559 74.1944 58.2828 74.1944 57.6565C74.1944 57.1935 73.8179 56.8141 73.3576 56.8141C72.7379 56.8141 72.5209 56.1851 72.5209 54.3886C72.5209 52.5921 72.7379 51.9631 73.3576 51.9631C73.8179 51.9631 74.1944 51.5993 74.1944 51.1546C74.1944 50.7099 73.8179 50.3461 73.3576 50.3461C72.893 50.3461 72.5209 49.867 72.5209 49.2681C72.5209 48.5496 72.1488 48.1901 71.4052 48.1901C70.6615 48.1901 70.2895 48.5496 70.2895 49.2681ZM12.8306 54.3886C12.8306 58.0716 12.9299 58.4311 13.9463 58.4311C14.9627 58.4311 15.062 58.0716 15.062 54.3886C15.062 50.7056 14.9627 50.3461 13.9463 50.3461C12.9299 50.3461 12.8306 50.7056 12.8306 54.3886ZM17.2934 54.4441C17.2934 58.0716 17.3939 58.4311 18.4091 58.4311C19.4021 58.4311 19.5248 58.0716 19.5248 55.1594C19.5248 52.0752 19.5968 51.8979 20.78 52.0601C21.8918 52.2132 22.0542 52.5862 22.2025 55.3318C22.3459 57.9902 22.5244 58.4311 23.4577 58.4311C24.4061 58.4311 24.5455 58.0462 24.5455 55.431C24.5455 50.9972 24.0284 50.3801 20.3533 50.4221C17.2934 50.4577 17.2934 50.4577 17.2934 54.4441ZM36.3977 50.9681C35.5023 51.8332 35.5034 53.8291 36.3999 54.5406C36.7837 54.8446 37.7053 55.1777 38.4483 55.2801C40.3138 55.5377 40.6485 56.8141 38.85 56.8141C38.0757 56.8141 37.2791 56.5597 37.0805 56.2487C36.8361 55.8665 36.4479 55.901 35.8816 56.3554C35.1431 56.9472 35.1615 57.11 36.0378 57.7288C37.4012 58.6925 40.4566 58.6116 41.5204 57.5843C43.112 56.046 42.384 54.311 39.8753 53.6626C37.5028 53.0497 37.3594 51.8354 39.6856 52.0553C41.0613 52.1857 41.56 52.0175 41.56 51.4241C41.56 50.3817 37.3856 50.0136 36.3977 50.9681ZM48.2292 51.4511C47.6484 52.0709 47.1944 53.3596 47.1944 54.3886C47.1944 59.1981 53.444 60.0211 54.8966 55.403C55.2966 54.1315 54.4018 51.3977 53.3793 50.7698C52.0733 49.9672 49.2718 50.338 48.2292 51.4511ZM56.3431 54.4651C56.3431 58.0716 56.4441 58.4311 57.4588 58.4311C58.4061 58.4311 58.5745 58.0716 58.5745 56.0498C58.5745 52.9743 59.0035 51.9631 60.3078 51.9631C61.2266 51.9631 61.3638 52.3835 61.3638 55.1971C61.3638 58.2872 61.4257 58.4311 62.7584 58.4311C64.0577 58.4311 64.1531 58.2489 64.1531 55.7711C64.1531 54.3083 63.9138 52.5026 63.6209 51.7588C63.1305 50.5127 62.8237 50.4097 59.7159 50.4523C56.3431 50.4987 56.3431 50.4987 56.3431 54.4651ZM86.0839 50.7698C84.7936 51.5621 84.1627 54.1584 84.8037 56.0358C85.4709 57.988 86.2385 58.4311 88.9547 58.4311C91.0684 58.4311 92.3771 57.3498 91.4031 56.4088C90.9585 55.9792 90.5172 55.9759 89.8165 56.3985C88.7561 57.0388 87.025 56.6384 87.025 55.7528C87.025 55.4472 88.1547 55.1971 89.5354 55.1971C91.9224 55.1971 92.0457 55.1216 92.0457 53.6636C92.0457 52.8201 91.5866 51.7286 91.0254 51.2382C89.9699 50.3154 87.2437 50.0567 86.0839 50.7698ZM97.6242 54.4403C97.6242 58.0376 97.7313 58.4311 98.7121 58.4311C99.6453 58.4311 99.8239 57.9902 99.9672 55.3318C100.112 52.646 100.284 52.2326 101.25 52.2326C102.217 52.2326 102.388 52.646 102.533 55.3318C102.677 57.9902 102.855 58.4311 103.789 58.4311C104.746 58.4311 104.876 58.0441 104.876 55.1971C104.876 52.3835 105.014 51.9631 105.932 51.9631C107.237 51.9631 107.666 52.9743 107.666 56.0498C107.666 58.0716 107.834 58.4311 108.781 58.4311C109.746 58.4311 109.897 58.0716 109.897 55.7711C109.897 51.8111 109.156 50.3461 107.155 50.3461C106.245 50.3461 105.337 50.6005 105.139 50.9115C104.898 51.2877 104.554 51.2975 104.11 50.9412C103.742 50.6469 102.133 50.4156 100.533 50.428C97.6242 50.4496 97.6242 50.4496 97.6242 54.4403ZM112.569 50.9164C110.602 52.024 110.825 56.6734 112.909 58.0187C114.072 58.769 116.972 58.4359 117.899 57.4452C119.174 56.0848 119.116 52.3868 117.802 51.2382C116.672 50.2491 114.041 50.0874 112.569 50.9164ZM120.852 54.3546C122.074 57.8646 122.45 58.4311 123.564 58.4311C124.677 58.4311 125.054 57.8667 126.265 54.3886C127.607 50.5315 127.623 50.3461 126.61 50.3461C125.798 50.3461 125.329 51.0716 124.62 53.4308C123.692 56.5155 123.692 56.5155 122.774 53.5656C122.067 51.2937 121.577 50.5768 120.645 50.4469C119.433 50.2777 119.433 50.2777 120.852 54.3546ZM129.253 51.3061C128.068 52.5711 128.028 55.6509 129.175 57.2329C130.675 59.3026 136.025 58.6176 135.171 56.4653C134.947 55.901 134.681 55.8601 134.129 56.3026C133.201 57.0469 130.98 56.7693 130.674 55.8708C130.513 55.3971 131.209 55.1971 133.019 55.1971C135.989 55.1971 136.598 54.4323 135.461 52.1307C134.85 50.8927 134.3 50.5865 132.457 50.455C130.809 50.338 129.946 50.5671 129.253 51.3061ZM31.7017 53.2184C31.8088 53.7607 31.7396 54.8074 31.5482 55.5442C31.0395 57.5035 28.7964 57.1089 28.5481 55.0171C28.4488 54.1768 28.5102 53.129 28.6854 52.6881C29.1244 51.5831 31.4601 51.9933 31.7017 53.2184ZM52.1592 54.3961C52.1592 56.1851 51.9729 56.5446 51.0435 56.5446C50.233 56.5446 49.8782 56.1269 49.7465 55.0171C49.4983 52.9188 50.0182 51.8488 51.1813 52.0655C51.9182 52.2024 52.1592 52.777 52.1592 54.3961ZM89.6776 52.9064C89.8216 53.3289 89.3697 53.5801 88.466 53.5801C87.5288 53.5801 87.025 53.2842 87.025 52.7339C87.025 51.7206 89.3245 51.8699 89.6776 52.9064ZM116.312 54.3886C116.312 56.1851 116.127 56.5446 115.197 56.5446C114.279 56.5446 114.05 56.1296 113.907 54.2118C113.746 52.0445 113.825 51.892 115.023 52.0558C116.125 52.2067 116.312 52.5463 116.312 54.3886ZM133.529 52.7716C133.77 53.3785 133.437 53.5801 132.194 53.5801C130.61 53.5801 130.112 53.0928 130.91 52.3226C131.584 51.671 133.201 51.948 133.529 52.7716Z" fill="white"/>
</svg>
