<svg width="93" height="80" viewBox="0 0 93 80" fill="none" xmlns="http://www.w3.org/2000/svg">
<path d="M83.4375 34.1075V71.0765L62.9675 51.1138L59.0459 54.9382L79.1544 74.5754H10.1794L29.6481 54.9382L25.6431 51.168L5.5625 71.4291V24.4517L40.1334 58.0031C41.1756 59.0134 42.5855 59.5805 44.055 59.5805C45.5245 59.5805 46.9344 59.0134 47.9766 58.0031L72.535 34.1889C70.5751 33.6901 68.701 32.9133 66.9725 31.8834L43.9994 54.1516L9.20594 20.3289H57.8778C57.3401 18.5671 57.05 16.7422 57.0156 14.9043H5.5625C4.08723 14.9043 2.67239 15.4758 1.62922 16.4931C0.586047 17.5105 0 18.8902 0 20.3289V74.5754C0 76.0141 0.586047 77.3939 1.62922 78.4112C2.67239 79.4285 4.08723 80 5.5625 80H83.4375C84.9128 80 86.3276 79.4285 87.3708 78.4112C88.414 77.3939 89 76.0141 89 74.5754V31.7207C87.2762 32.7786 85.4019 33.5829 83.4375 34.1075Z" fill="white"/>
<path d="M93 14.7945C93 22.9652 86.2843 29.589 78 29.589C69.7157 29.589 63 22.9652 63 14.7945C63 6.62371 69.7157 0 78 0C86.2843 0 93 6.62371 93 14.7945Z" fill="white"/>
<path d="M70 15.4181L75.2465 20.7123L86 9.86304" stroke="#152A24" stroke-width="4" stroke-linecap="round" stroke-linejoin="round"/>
</svg>
