<svg width="48" height="54" viewBox="0 0 48 54" fill="none" xmlns="http://www.w3.org/2000/svg">
<path fill-rule="evenodd" clip-rule="evenodd" d="M12.0774 6.48226C5.94507 10.0475 0.828182 13.0537 0.706381 13.1629C0.181306 13.6334 0.199351 13.1411 0.199351 27.0306C0.199351 41.0182 0.176375 40.4239 0.736595 40.9218C0.873923 41.0438 5.96678 44.0363 12.0542 47.5718L23.1222 54H23.6992H24.2762L35.3442 47.5717C41.4317 44.0361 46.5245 41.0436 46.6618 40.9217C47.2221 40.4241 47.1991 41.0182 47.1991 27.0306C47.1991 13.043 47.2221 13.6371 46.6618 13.1395C46.5245 13.0176 41.4317 10.0251 35.3442 6.48954L24.2762 0.0612221L23.7517 0.030611L23.2271 0L12.0774 6.48226ZM33.8367 9.33574L43.8944 15.1797V27.0306V38.8815L33.8367 44.7255C28.3049 47.9396 23.7431 50.5695 23.6992 50.5695C23.6554 50.5695 19.0936 47.9396 13.5618 44.7255L3.50402 38.8815V27.0306V15.1796L13.5229 9.34545C19.0333 6.13657 23.5951 3.50687 23.6604 3.50148C23.7256 3.4961 28.3049 6.12158 33.8367 9.33574ZM7.7383 20.639C7.01652 21.1325 7.01819 21.1175 7.02082 27.0591L7.02313 32.3612L7.21826 32.7934C7.73032 33.928 9.44393 33.9959 10.0372 32.9051C10.1955 32.6142 10.2224 32.16 10.2508 29.3001L10.2832 26.0278L11.7008 29.4584C12.8159 32.157 13.1954 32.9678 13.4794 33.2584L13.8406 33.6278L15.2817 33.6616L16.7227 33.6954L17.0792 33.4505C17.2754 33.3158 17.5232 33.0401 17.63 32.8378L17.8243 32.47V27.0306V21.5912L17.63 21.2234C17.5232 21.0211 17.2754 20.7446 17.0792 20.6087C16.7809 20.4023 16.6233 20.3689 16.1141 20.4048C15.5794 20.4425 15.4585 20.495 15.1175 20.838L14.7294 21.2282L14.6769 24.6836L14.6245 28.1389L13.2708 24.8667C11.6184 20.8721 11.6206 20.8766 11.1796 20.6024C10.8655 20.4071 10.6615 20.3806 9.46963 20.3806H8.11629L7.7383 20.639ZM21.3116 20.5891C21.1235 20.7056 20.8759 20.9557 20.7612 21.145L20.5527 21.489V27.0306V32.5723L20.7612 32.9163C21.0527 33.3974 21.5574 33.6799 22.1256 33.6799C22.6938 33.6799 23.1985 33.3974 23.4899 32.9163C23.6731 32.6142 23.6985 32.3827 23.6988 31.0153L23.6992 29.4584L25.6138 29.458L27.5284 29.4576L27.8703 29.2478C28.8837 28.6262 28.8837 27.1239 27.8703 26.5023L27.5284 26.2925L25.6138 26.2921L23.6992 26.2917V24.9195V23.5473L26.4007 23.5471C29.4282 23.547 29.6094 23.5106 30.0797 22.8084C30.2867 22.4993 30.3202 22.3389 30.2845 21.8266C30.2471 21.2886 30.1949 21.167 29.854 20.8239L29.466 20.4334L25.5597 20.4053L21.6535 20.3772L21.3116 20.5891ZM32.0837 20.6207C31.6251 20.9316 31.3018 21.6841 31.4003 22.2118C31.4881 22.6832 31.9206 23.2134 32.3722 23.4033C32.5803 23.4907 33.1075 23.5473 33.7148 23.5473H34.7148L34.7171 27.9542L34.7194 32.3612L34.9145 32.7934C35.4538 33.9881 37.228 33.9881 37.7672 32.7934L37.9624 32.3612L37.9647 27.9542L37.967 23.5473H38.967C39.5743 23.5473 40.1015 23.4907 40.3095 23.4033C40.7612 23.2134 41.1937 22.6832 41.2815 22.2118C41.3799 21.6841 41.0567 20.9316 40.598 20.6207L40.244 20.3806H36.3409H32.4378L32.0837 20.6207Z" fill="url(#paint0_linear_575_477)"/>
<defs>
<linearGradient id="paint0_linear_575_477" x1="23.6992" y1="0" x2="23.6992" y2="54" gradientUnits="userSpaceOnUse">
<stop stop-color="#43DF9B"/>
<stop offset="1" stop-color="#3DBAB5"/>
</linearGradient>
</defs>
</svg>
