<svg width="54" height="54" viewBox="0 0 54 54" fill="none" xmlns="http://www.w3.org/2000/svg">
<path fill-rule="evenodd" clip-rule="evenodd" d="M42.8644 1.02966C39.2205 1.32803 36.0042 3.81812 34.8014 7.27208C34.717 7.51433 34.6381 7.72241 34.626 7.73449C34.6139 7.74656 34.5249 7.71656 34.4281 7.66781C34.1242 7.51474 32.9045 7.03692 32.3084 6.83743C31.0415 6.41348 29.6459 6.07185 28.375 5.87461C26.3218 5.55589 23.9159 5.51501 21.8576 5.76384C17.3177 6.31269 13.0451 8.16031 9.51653 11.1006C2.99072 16.5384 -0.131338 25.1151 1.37179 33.4751C2.40598 39.2267 5.45258 44.2929 10.0805 47.9567C10.7266 48.4682 11.7635 49.1779 12.5807 49.668C17.0781 52.3649 22.3887 53.4715 27.689 52.816C31.7192 52.3177 35.6478 50.7268 38.9173 48.2691C44.1218 44.357 47.4488 38.606 48.2432 32.1488C48.4923 30.1239 48.4529 27.7051 48.1373 25.6473C47.9467 24.4043 47.5865 22.9328 47.1674 21.685C46.9707 21.0994 46.4914 19.8792 46.3403 19.5791C46.2915 19.4824 46.2623 19.3926 46.2753 19.3795C46.2884 19.3665 46.5004 19.2857 46.7465 19.2C49.6551 18.187 51.9366 15.7099 52.7008 12.735C53.0894 11.2222 53.0998 9.58847 52.7302 8.11595C52.2028 6.0145 50.9834 4.17442 49.2537 2.86979C47.4707 1.52496 45.112 0.845634 42.8644 1.02966ZM45.1783 2.67195C46.7779 3.01755 48.0643 3.71064 49.1864 4.83138C50.2873 5.93099 50.9981 7.25543 51.3417 8.84768C51.4312 9.26248 51.4456 9.4649 51.4472 10.334C51.4493 11.4463 51.3816 11.9313 51.1042 12.7924C50.9194 13.3662 50.3925 14.4084 50.0405 14.8965C47.7852 18.024 43.7118 19.0843 40.2665 17.4408C39.2789 16.9696 38.2096 16.126 37.5417 15.291C35.8649 13.1946 35.3602 10.4222 36.1988 7.9133C36.8775 5.88261 38.244 4.30897 40.1522 3.36056C40.8852 2.9962 41.4388 2.80499 42.1347 2.6757C42.8584 2.54129 42.8263 2.54353 43.8111 2.5594C44.532 2.57106 44.8217 2.59489 45.1783 2.67195ZM43.4435 5.46493C43.3671 5.48793 43.2438 5.57011 43.1696 5.64759C43.045 5.77761 43.0328 5.82091 43.0112 6.20905L42.9878 6.62962L42.5983 6.65632C42.0998 6.69049 41.7538 6.80061 41.3971 7.03866C40.3247 7.75438 40.1347 9.29871 40.9985 10.278C41.4102 10.7449 41.8535 10.9516 42.5305 10.9924L42.9878 11.02V11.8889V12.7579L41.9022 12.7807L40.8167 12.8036L40.651 12.9694C40.4461 13.1744 40.3954 13.4534 40.5168 13.7091C40.6662 14.024 40.7129 14.0358 41.913 14.0613L42.9878 14.0841L43.0107 14.4957C43.0365 14.9607 43.1048 15.1063 43.3519 15.2235C43.5666 15.3254 43.7935 15.3141 43.9758 15.1923C44.2082 15.037 44.2912 14.8328 44.2912 14.4157L44.2913 14.0613H44.6524C45.1088 14.0613 45.5161 13.9392 45.8876 13.6912C46.2291 13.4631 46.4385 13.2142 46.6264 12.8125C47.0308 11.9484 46.8441 10.9731 46.1501 10.324C45.7113 9.9135 45.2091 9.71662 44.6009 9.71662H44.2894L44.3018 8.83625L44.3142 7.95588L45.3975 7.93302L46.4809 7.91015L46.6199 7.77684C46.8776 7.52979 46.9115 7.20238 46.7089 6.91787C46.5369 6.67626 46.4106 6.65248 45.299 6.65248H44.2913V6.30802C44.2913 6.11777 44.2629 5.8956 44.2279 5.81177C44.1108 5.53156 43.7509 5.37241 43.4435 5.46493ZM26.9572 7.22397C28.5467 7.39231 30.1192 7.72685 31.6146 8.21478C32.415 8.47592 33.6128 8.94725 34.0817 9.18552L34.2957 9.29427L34.3012 10.3172C34.3102 12.0042 34.5717 13.1479 35.2673 14.5415C35.7654 15.5394 36.3344 16.3047 37.1909 17.129C39.0341 18.9029 41.4756 19.8262 44.0315 19.716L44.7094 19.6868L44.9067 20.1097C45.4103 21.1891 45.9393 22.7127 46.2572 23.9996C47.1448 27.5925 47.0955 31.5557 46.1188 35.1176C45.137 38.6978 43.3432 41.8815 40.7955 44.5654C37.8451 47.6735 34.1036 49.8437 29.9605 50.8502C28.1803 51.2827 26.5883 51.471 24.7161 51.4703C21.1582 51.4691 17.8965 50.7014 14.7684 49.1289C9.56538 46.5133 5.62414 42.0055 3.72104 36.4935C2.48785 32.9217 2.20602 29.0631 2.8977 25.2202C3.47695 22.0019 4.95053 18.6496 6.94807 16.006C10.8372 10.859 16.5505 7.71231 22.9781 7.17727C23.9418 7.09706 25.9854 7.12102 26.9572 7.22397ZM42.9878 8.82482V9.69375L42.773 9.70761C42.4525 9.72823 42.2062 9.64395 42.0081 9.44578C41.4085 8.84622 41.9111 7.9005 42.8049 7.94646L42.9878 7.95588V8.82482ZM44.863 11.0476C45.5067 11.2234 45.7485 12.0041 45.306 12.4778C45.1253 12.6714 44.8583 12.7786 44.5543 12.7797L44.2913 12.7807V11.9195C44.2913 11.4457 44.305 11.0444 44.3218 11.0277C44.3684 10.9811 44.6585 10.9918 44.863 11.0476ZM23.9386 17.1758C22.7855 17.3576 21.6942 17.9317 20.8971 18.7757C18.9596 20.8273 19.0088 24.0438 21.0084 26.0473C23.9977 29.0428 29.1277 27.4234 29.8617 23.2525C30.2147 21.2473 29.3147 19.1373 27.6323 18.0255C26.9558 17.5784 26.3397 17.3319 25.5623 17.1971C25.1226 17.1208 24.3511 17.1107 23.9386 17.1758ZM25.6334 18.7643C26.879 19.0911 27.8568 20.0288 28.2643 21.2871C28.3759 21.6318 28.3906 21.7485 28.394 22.3161C28.3973 22.8558 28.3814 23.0139 28.2926 23.3223C27.9943 24.3587 27.3182 25.1858 26.3855 25.6551C25.8018 25.9487 25.3638 26.0537 24.7161 26.0553C24.1181 26.0567 23.7359 25.981 23.2363 25.7621C21.9869 25.2149 21.1659 24.0873 21.0166 22.7136C20.9257 21.8772 21.1343 21.062 21.6344 20.2991C22.1882 19.4544 23.0935 18.8698 24.1395 18.6814C24.4854 18.6191 25.2393 18.6609 25.6334 18.7643ZM12.9161 20.0466C11.5935 20.3353 10.5027 21.162 9.87584 22.3508C8.94895 24.1083 9.2943 26.2476 10.7272 27.6245C11.2719 28.1479 11.7626 28.4465 12.4359 28.6644C12.9478 28.83 13.2679 28.8789 13.8412 28.8789C16.111 28.8789 17.9861 27.2036 18.2691 24.9229C18.3623 24.172 18.2159 23.2654 17.8861 22.5519C17.3362 21.3617 16.2259 20.4316 14.9514 20.0934C14.4242 19.9535 13.4458 19.931 12.9161 20.0466ZM34.6867 20.0477C33.9038 20.2217 33.3155 20.5037 32.7519 20.9751C30.249 23.0688 30.7013 26.9859 33.6119 28.4217C34.353 28.7873 34.6604 28.855 35.5785 28.855C36.2521 28.855 36.405 28.8411 36.7219 28.7503C38.2925 28.3004 39.4047 27.2093 39.8865 25.6455C40.0018 25.2712 40.0105 25.1856 40.0105 24.4199C40.0105 23.6513 40.0022 23.5696 39.8847 23.1879C39.653 22.4352 39.1445 21.6028 38.6392 21.149C37.7856 20.3823 36.8708 20.0169 35.7157 19.9811C35.2013 19.9652 34.999 19.9783 34.6867 20.0477ZM14.4454 21.5389C14.8675 21.6283 15.4459 21.9206 15.7671 22.2069C16.4183 22.7872 16.7685 23.5611 16.7685 24.4199C16.7685 25.2355 16.4934 25.8982 15.9128 26.4817C14.9858 27.4132 13.6942 27.6262 12.5045 27.0438C12.1957 26.8927 12.0404 26.7772 11.7494 26.4828C11.1618 25.8881 10.8899 25.2357 10.8896 24.4199C10.8892 23.6038 11.1767 22.9243 11.7723 22.3335C12.4899 21.6217 13.4662 21.3315 14.4454 21.5389ZM36.4968 21.6257C37.3766 21.9062 38.1148 22.6451 38.3974 23.5281C38.5332 23.9523 38.5612 24.6115 38.4623 25.0562C38.1037 26.6676 36.4756 27.6798 34.8884 27.2781C33.836 27.0118 33.0581 26.2584 32.7372 25.195C32.6244 24.821 32.6245 24.0191 32.7374 23.6424C32.9729 22.857 33.5664 22.1443 34.275 21.7961C34.4889 21.691 34.7976 21.5749 34.9611 21.5381C35.3921 21.4411 36.0324 21.4776 36.4968 21.6257ZM24.1406 28.7C22.0816 28.8297 20.0291 29.7953 18.6304 31.2921C17.3661 32.6452 16.605 34.283 16.3888 36.1159C16.3137 36.7525 16.3442 37.2993 16.4635 37.4592C16.6463 37.7038 16.7874 37.774 17.0965 37.774C17.3376 37.774 17.4083 37.7544 17.5464 37.649C17.7651 37.4823 17.8433 37.2431 17.8771 36.6382C17.9792 34.8099 18.8296 33.0774 20.2109 31.8832C21.1052 31.1101 22.1364 30.5978 23.3357 30.3309C23.7054 30.2486 23.9296 30.232 24.6933 30.2302C25.489 30.2283 25.6698 30.2418 26.0828 30.3343C27.3044 30.6078 28.3848 31.1477 29.226 31.9052C30.6349 33.1738 31.3877 34.7094 31.5406 36.6261C31.5846 37.1784 31.6127 37.3336 31.6887 37.4451C31.8404 37.6677 32.0073 37.7645 32.2722 37.7834C32.5956 37.8065 32.84 37.6701 32.983 37.3868C33.1004 37.1541 33.1102 36.949 33.0379 36.2353C32.7413 33.3073 30.9825 30.7867 28.3522 29.5199C26.9991 28.8682 25.6475 28.6051 24.1406 28.7ZM12.8447 30.0468C10.1804 30.4358 7.99507 32.2479 7.13861 34.7785C6.94153 35.3607 6.85408 35.7788 6.7857 36.4654C6.70855 37.2408 6.79554 37.5211 7.16948 37.7022C7.41554 37.8212 7.6209 37.8222 7.86225 37.7054C8.15729 37.5626 8.25558 37.3432 8.30027 36.7278C8.34509 36.1105 8.40326 35.7952 8.55735 35.3349C8.71363 34.8682 8.85505 34.5531 9.06072 34.2134C10.4989 31.8386 13.401 30.8744 15.9681 31.9186C16.306 32.056 16.4427 32.0614 16.6939 31.9473C16.939 31.836 17.0871 31.623 17.114 31.3432C17.1553 30.9133 16.9486 30.6688 16.3481 30.4372C15.2938 30.0307 13.9675 29.8829 12.8447 30.0468ZM34.8696 30.0049C34.1021 30.1004 32.9925 30.4084 32.6423 30.6231C32.0199 31.0047 32.2849 32.0021 33.0107 32.0093C33.1653 32.0108 33.35 31.9693 33.5493 31.8882C35.5237 31.0849 37.8557 31.5455 39.4227 33.0484C40.4474 34.0311 41.0195 35.2847 41.1301 36.7894C41.1697 37.3275 41.2373 37.5041 41.4664 37.6675C41.6708 37.8133 42.1199 37.8191 42.3099 37.6783C42.5838 37.4754 42.6449 37.3223 42.644 36.8411C42.6408 35.0831 41.8132 33.2253 40.4593 31.9369C39.4347 30.962 38.2225 30.3459 36.8134 30.0839C36.4547 30.0172 35.1853 29.9656 34.8696 30.0049Z" fill="url(#paint0_linear_575_484)" stroke="url(#paint1_linear_575_484)" stroke-width="0.5"/>
<defs>
<linearGradient id="paint0_linear_575_484" x1="27" y1="1" x2="27" y2="53" gradientUnits="userSpaceOnUse">
<stop stop-color="#43DF9B"/>
<stop offset="1" stop-color="#3DBAB5"/>
</linearGradient>
<linearGradient id="paint1_linear_575_484" x1="27" y1="1" x2="27" y2="53" gradientUnits="userSpaceOnUse">
<stop stop-color="#43DF9B"/>
<stop offset="1" stop-color="#3DBAB5"/>
</linearGradient>
</defs>
</svg>
