<svg width="49" height="57" viewBox="0 0 49 57" fill="none" xmlns="http://www.w3.org/2000/svg">
<g opacity="0.9">
<path d="M20.4167 29.8571L14.9722 24.4286L12.25 27.1429L20.4167 35.2857L36.75 19L34.0278 16.2857L20.4167 29.8571Z" fill="url(#paint0_linear_575_463)"/>
<path d="M24.5 57L11.5695 50.2143C7.97476 48.3075 5.49763 45.5528 3.40279 42.0714C1.30794 38.5901 -0.00431616 34.5956 1.06671e-05 30.5357V4.07143C0.00109168 2.99195 0.595583 2.12045 1.36112 1.35714C2.12666 0.593835 3.00071 0.00107786 4.08334 0H44.9167C45.9993 0.00107786 46.8733 0.593835 47.6389 1.35714C48.4044 2.12045 48.9989 2.99195 49 4.07143V30.5357C49.0043 34.5956 47.6921 38.5901 45.5972 42.0714C43.5024 45.5528 41.0252 48.3075 37.4305 50.2143L24.5 57ZM4.08334 4.07143V30.5357C4.07995 33.8576 5.09126 37.1873 6.80556 40.0357C8.51987 42.8841 10.6696 45.2616 13.6111 46.8214L24.5 52.25L35.3889 46.8214C38.3307 45.2614 40.4801 42.8845 42.1944 40.0357C43.9088 37.187 44.9204 33.8579 44.9167 30.5357V4.07143H4.08334Z" fill="url(#paint1_linear_575_463)"/>
</g>
<defs>
<linearGradient id="paint0_linear_575_463" x1="24.5" y1="0" x2="24.5" y2="57" gradientUnits="userSpaceOnUse">
<stop stop-color="#43DF9B"/>
<stop offset="1" stop-color="#3DBAB5"/>
</linearGradient>
<linearGradient id="paint1_linear_575_463" x1="24.5" y1="0" x2="24.5" y2="57" gradientUnits="userSpaceOnUse">
<stop stop-color="#43DF9B"/>
<stop offset="1" stop-color="#3DBAB5"/>
</linearGradient>
</defs>
</svg>
