<svg width="19" height="16" viewBox="0 0 19 16" fill="none" xmlns="http://www.w3.org/2000/svg">
<path fill-rule="evenodd" clip-rule="evenodd" d="M16.7814 0.109461C17.0117 0.0125391 17.2637 -0.0208885 17.5113 0.0126568C17.7589 0.0462021 17.993 0.145494 18.1891 0.300199C18.3853 0.454903 18.5365 0.659364 18.6268 0.8923C18.7172 1.12524 18.7434 1.37813 18.7029 1.62466L16.5894 14.4443C16.3844 15.6808 15.0276 16.39 13.8936 15.774C12.9449 15.2587 11.536 14.4648 10.2686 13.6363C9.63496 13.2217 7.6939 11.8938 7.93246 10.9488C8.13747 10.1409 11.399 7.10493 13.2627 5.29992C13.9942 4.59077 13.6606 4.18169 12.7968 4.83399C10.6507 6.45356 7.20747 8.91646 6.06874 9.60977C5.06419 10.2211 4.54049 10.3254 3.91428 10.2211C2.77182 10.031 1.7123 9.7365 0.84753 9.37773C-0.321022 8.89317 -0.264178 7.28664 0.846598 6.81885L16.7814 0.109461Z" fill="white"/>
</svg>
