<svg width="21" height="16" viewBox="0 0 21 16" fill="none" xmlns="http://www.w3.org/2000/svg">
<path d="M20.4121 1.88235C19.6874 2.21176 18.9062 2.42824 18.0968 2.53176C18.925 2.03294 19.565 1.24235 19.8662 0.291765C19.085 0.762353 18.2191 1.09176 17.3062 1.28C16.5627 0.470588 15.5179 0 14.3321 0C12.1203 0 10.3132 1.80706 10.3132 4.03765C10.3132 4.35765 10.3509 4.66824 10.4168 4.96C7.06619 4.79059 4.08266 3.18118 2.09677 0.743529C1.74854 1.33647 1.55089 2.03294 1.55089 2.76706C1.55089 4.16941 2.25677 5.41176 3.34854 6.11765C2.6803 6.11765 2.05913 5.92941 1.51324 5.64706V5.67529C1.51324 7.63294 2.90619 9.27059 4.75089 9.63765C4.15863 9.79973 3.53686 9.82228 2.93442 9.70353C3.19005 10.5059 3.69069 11.2079 4.36597 11.711C5.04124 12.2141 5.85719 12.4929 6.69913 12.5082C5.27195 13.6381 3.50289 14.2488 1.68266 14.24C1.36266 14.24 1.04266 14.2212 0.722656 14.1835C2.51089 15.3318 4.63795 16 6.9156 16C14.3321 16 18.4074 9.84471 18.4074 4.50824C18.4074 4.32941 18.4074 4.16 18.3979 3.98118C19.1885 3.41647 19.8662 2.70118 20.4121 1.88235Z" fill="white"/>
</svg>
