<?xml version="1.0" encoding="UTF-8"?>
<svg id="Isolation_Mode" data-name="Isolation Mode" xmlns="http://www.w3.org/2000/svg" viewBox="0 0 386.86 443.93">
  <defs>
    <style>
      .cls-1 {
        fill: none;
        stroke: #fff;
        stroke-miterlimit: 10;
        stroke-width: 4px;
      }
    </style>
  </defs>
  <path class="cls-1" d="M194.2,71.97l-95.62,15.14c-14.6,2.31-21.63-17.26-8.9-24.77L184.46,6.44c5.52-3.26,12.38-3.25,17.89.03l171.88,102.12c5.33,3.16,8.59,8.9,8.59,15.09v32.1c0,13.89-15.37,22.28-27.05,14.77l-149.33-96c-3.63-2.33-7.98-3.25-12.24-2.57Z"/>
  <path class="cls-1" d="M4,320.24v-164.55c0-8.64,6.28-15.99,14.81-17.34l167.82-26.56c4.26-.67,8.61.24,12.24,2.57l175.92,113.06c5.03,3.23,8.07,8.8,8.07,14.77v23.12c0,13.91-15.41,22.3-27.09,14.74l-136.25-88.1c-11.68-7.55-27.09.83-27.09,14.74v.05c0,5.98,3.04,11.54,8.07,14.77l152.16,97.78c11,7.07,10.69,23.26-.58,29.9l-2.01,1.18c-5.72,3.37-12.86,3.23-18.44-.38l-112.11-72.46c-11.68-7.55-27.09.84-27.09,14.75v.06c0,5.97,3.04,11.54,8.06,14.77l82.73,53.18c11,7.07,10.69,23.25-.58,29.89l-1.77,1.05c-5.72,3.38-12.87,3.23-18.45-.38l-42.91-27.73c-11.68-7.55-27.09.84-27.09,14.75h0c0,5.97,3.04,11.54,8.06,14.77l13.33,8.57c11,7.07,10.69,23.25-.58,29.89l-10.89,6.42c-5.52,3.25-12.38,3.24-17.88-.03L12.59,335.33c-5.32-3.16-8.59-8.9-8.59-15.09Z"/>
</svg>