<?xml version="1.0" encoding="UTF-8"?>
<svg id="Layer_1" data-name="Layer 1" xmlns="http://www.w3.org/2000/svg" viewBox="0 0 1775.19 435.93">
  <defs>
    <style>
      .cls-1 {
        fill: #fff;
        stroke-width: 0px;
      }
    </style>
  </defs>
  <g>
    <path class="cls-1" d="M588.56,271.07c0,13.36-2.28,25.42-5.87,34.22-10.76,25.43-34.23,38.47-60.63,38.47-31.29,0-60.63-20.54-66.5-52.81h36.19c7.5,19.56,22.49,20.54,30.64,20.54,12.06,0,23.8-6.19,28.36-20.54,1.31-4.89,2.61-11.41,2.61-17.93V97.97h35.21v173.09Z"/>
    <path class="cls-1" d="M711.14,343.76c-60.63,0-97.47-50.53-97.47-96.16,0-49.22,41.4-93.88,97.47-93.88s97.47,43.03,97.47,94.54c0,44-36.19,95.51-97.47,95.51ZM711.14,184.68c-38.14,0-63.56,31.62-63.56,63.89s25.75,64.22,63.56,64.22,63.57-30.32,63.57-64.54c0-31.95-25.43-63.57-63.57-63.57Z"/>
    <path class="cls-1" d="M843.17,339.2V97.97h33.9v85.73h.65c14.67-20.54,37.49-29.99,61.93-29.99,47.92,0,93.56,39.44,93.56,95.18,0,52.16-40.09,94.86-92.9,94.86-16.62,0-44.33-5.87-62.91-30.65h-.65v26.08h-33.57ZM937.71,312.8c32.6,0,61.61-28.04,61.61-63.89,0-33.9-26.08-64.22-61.61-64.22s-61.61,31.62-61.61,63.57c0,40.75,31.29,64.54,61.61,64.54Z"/>
    <path class="cls-1" d="M1066.8,97.97h78.23c50.2,0,80.19,19.23,98.45,44.33,17.28,24.13,24.77,53.46,24.77,76.94,0,32.6-12.39,67.47-30.31,85.08-27.71,27.38-60.31,34.88-94.21,34.88h-76.93V97.97ZM1102.01,306.92h42.05c42.38,0,88.99-21.18,88.99-87.68,0-36.51-22.49-89-88.34-89h-42.71v176.68Z"/>
    <path class="cls-1" d="M1330.86,263.57c8.48,34.88,36.51,49.23,59.33,49.23,25.1,0,43.35-14.67,51.51-30.32h33.9c-17.27,46.62-58.68,61.29-86.71,61.29-51.18,0-91.93-44.01-91.93-95.19,0-54.11,41.73-94.86,92.58-94.86s91.6,39.77,91.92,92.58c0,5.87-.65,14.99-.98,17.27h-149.62ZM1447.56,237.49c-1.63-26.41-25.75-52.81-58.35-52.81s-56.72,26.4-58.35,52.81h116.7Z"/>
    <path class="cls-1" d="M1663.69,339.2v-28.04h-.65c-13.04,22.17-36.84,32.6-61.29,32.6-60.96,0-95.84-46.62-95.84-94.21,0-44.01,30.97-95.84,95.84-95.84,25.1,0,48.25,10.43,61.29,30.31h.65v-25.42h33.9v180.59h-33.9ZM1601.76,184.68c-41.73,0-61.93,36.19-61.93,64.54,0,32.6,25.75,63.57,61.61,63.57s62.91-29.01,62.91-63.57c0-38.46-27.71-64.54-62.59-64.54Z"/>
    <path class="cls-1" d="M1775.19,339.2h-33.9V97.97h33.9v241.22Z"/>
  </g>
  <g>
    <path class="cls-1" d="M190.2,67.97l-95.62,15.14c-14.6,2.31-21.63-17.26-8.9-24.77L180.46,2.44c5.52-3.26,12.38-3.25,17.89.03l171.88,102.12c5.33,3.16,8.59,8.9,8.59,15.09v32.1c0,13.89-15.37,22.28-27.05,14.77l-149.33-96c-3.63-2.33-7.98-3.25-12.24-2.57Z"/>
    <path class="cls-1" d="M0,316.24v-164.55c0-8.64,6.28-15.99,14.81-17.34l167.82-26.56c4.26-.67,8.61.24,12.24,2.57l175.92,113.06c5.03,3.23,8.07,8.8,8.07,14.77v23.12c0,13.91-15.41,22.3-27.09,14.74l-136.25-88.1c-11.68-7.55-27.09.83-27.09,14.74v.05c0,5.98,3.04,11.54,8.07,14.77l152.16,97.78c11,7.07,10.69,23.26-.58,29.9l-2.01,1.18c-5.72,3.37-12.86,3.23-18.44-.38l-112.11-72.46c-11.68-7.55-27.09.84-27.09,14.75v.06c0,5.97,3.04,11.54,8.06,14.77l82.73,53.18c11,7.07,10.69,23.25-.58,29.89l-1.77,1.05c-5.72,3.38-12.87,3.23-18.45-.38l-42.91-27.73c-11.68-7.55-27.09.84-27.09,14.75h0c0,5.97,3.04,11.54,8.06,14.77l13.33,8.57c11,7.07,10.69,23.25-.58,29.89l-10.89,6.42c-5.52,3.25-12.38,3.24-17.88-.03L8.59,331.33c-5.32-3.16-8.59-8.9-8.59-15.09Z"/>
  </g>
</svg>